# xmcd
#
# Track frame offsets: 
#        150
#        16681
#        32125
#        47178
#        56761
#        68683
#        86835
#        98679
#        112180
#
# Disc length: 1703 seconds
#
# Revision: 0
# Processed by: cddbd v1.5.2PL0 Copyright (c) Steve Scherf et al.
# Submitted via: ExactAudioCopy v1.1
#
DISCID=7306a509
DTITLE=Sankofa - SA2
DYEAR=1900
DGENRE=
TTITLE0=Wimmera St.
TTITLE1=Ferdinand
TTITLE2=Residue
TTITLE3=Target Practice
TTITLE4=Bankshot
TTITLE5=Turn
TTITLE6=Untitled
TTITLE7=Happy Face
TTITLE8=U-Turn
EXTD=
EXTT0=
EXTT1=
EXTT2=
EXTT3=
EXTT4=
EXTT5=
EXTT6=
EXTT7=
EXTT8=
PLAYORDER=
